<svg width="26" height="26" xmlns="http://www.w3.org/2000/svg">
  <path id="svg_1" d="m13,24.92117c-6.62983,0 -12,-5.33489 -12,-11.92117c0,-6.58628 5.37017,-11.92117 12,-11.92117c6.62983,0 12,5.33489 12,11.92117c0,6.58628 -5.37017,11.92117 -12,11.92117z" opacity="undefined" stroke="#000"  fill="#ffffff"/>
  <path id="svg_12" d="m1,13c0,-6.58628 5.37017,-11.92117 12,-11.92117c6.62983,0 12,5.33489 12,11.92117l-24,0z" opacity="undefined" stroke="#000" fill="#3C3831"/>
  <path style="vector-effect: non-scaling-stroke;" id="svg_8" d="m17,3c2.33333,0 2.58102,-0.22247 4.85873,1.69633c2.5584,3.58361 2.14127,4.97034 2.14127,8.30367l-7,0c0,-3.33333 0,-6.66667 0,-10z" opacity="undefined" stroke-width="0" stroke="#ffff00" fill="#ffff00"/>
  <path id="svg_7" d="m9,3l0,10l-7,0l-0.00389,-5.19466c2.58491,-3.89136 1.9162,-4.86281 7.00389,-4.80534z" opacity="undefined" stroke-width="0" stroke="#ffff00" fill="#ffff00"/>
  <rect stroke-width="0" id="svg_10" height="2" width="12" y="2" x="7" stroke="#000" fill="#ffff00"/>
  <path id="svg_2" d="m1,13.0345l23.88666,-0.0345" opacity="NaN" stroke="#000" fill="#fff"/>
  <ellipse ry="3" rx="3" id="svg_3" cy="13" cx="13" stroke="#000" fill="#fff"/>
  <ellipse ry="1" rx="1" id="svg_4" cy="13" cx="13" stroke="#000" fill="#fff"/>
  <path id="svg_6" d="m0.9409,12.84236" opacity="NaN" stroke="#000" fill="#fff"/>
  <path fill="#0fffff" stroke="#000" fill-opacity="0" opacity="NaN" d="m481.73353,207.33538l4.45231,2.99651l2.07972,-2.25303l-2.85961,-3.81282l-3.67242,3.06934z" id="svg_5"/>
  <path id="svg_9" d="m6.48206,8.14452" opacity="NaN" stroke-width="0" stroke="#ffff00" fill="#ffff00"/>
</svg>