<svg width="26" height="26" xmlns="http://www.w3.org/2000/svg">
  <path id="svg_1" d="m13,24.92117c-6.62983,0 -12,-5.33489 -12,-11.92117c0,-6.58628 5.37017,-11.92117 12,-11.92117c6.62983,0 12,5.33489 12,11.92117c0,6.58628 -5.37017,11.92117 -12,11.92117z" opacity="undefined" stroke="#000" fill="#ffffff"/>
  <path fill="#855682" stroke="#000" opacity="undefined" d="m1,13c0,-6.58628 5.37017,-11.92117 12,-11.92117c6.62983,0 12,5.33489 12,11.92117l-24,0z" id="svg_12"/>
  <path fill="#fff" stroke="#000" opacity="NaN" d="m1,13.0345l23.88666,-0.0345" id="svg_2"/>
  <ellipse fill="#fff" stroke="#000" cx="13" cy="13" id="svg_3" rx="3" ry="3"/>
  <ellipse fill="#fff" stroke="#000" cx="13" cy="13" id="svg_4" rx="1" ry="1"/>
  <path fill="#fff" stroke="#000" opacity="NaN" d="m0.9409,12.84236" id="svg_6"/>
  <ellipse ry="3.13199" rx="3.13199" id="svg_5" cy="4" cx="6" stroke="#000" fill="#b44a76"/>
  <ellipse ry="3.13199" rx="3.13199" id="svg_7" cy="4" cx="20" stroke="#000" fill="#b44a76"/>
  <text xml:space="preserve" text-anchor="start" font-family="'Red Rose'" font-size="4" stroke-width="0" id="svg_8" y="9" x="11" stroke="#000" fill="#ffffff">M</text>
</svg>