<svg width="26" height="26" xmlns="http://www.w3.org/2000/svg">
  <ellipse ry="11.92117" rx="12" id="svg_1" cy="13" cx="13" stroke="#000" fill="#e53b2c"/>
  <path id="svg_2" d="m4,13l18,0" opacity="NaN" stroke="#000" fill="#fff"/>
  <ellipse ry="3" rx="3" id="svg_3" cy="13" cx="13" stroke="#000" fill="#fff"/>
  <ellipse ry="1" rx="1" id="svg_4" cy="13" cx="13" stroke="#000" fill="#fff"/>
  <path stroke-width="0" id="svg_6" d="m1,12.76817c0,-0.97689 0.79128,-1.76817 1.76817,-1.76817c0.97689,0 1.76817,0.79128 1.76817,1.76817l-3.53633,0z" opacity="undefined" stroke="#000" fill="#000000"/>
  <path stroke-width="0" id="svg_8" d="m21.5239,12.76817c0,-0.97689 0.79128,-1.76817 1.76817,-1.76817c0.97689,0 1.76817,0.79128 1.76817,1.76817l-3.53633,0z" opacity="undefined" stroke="#000" fill="#000000"/>
  <path transform="rotate(180, 2.76817, 13.8841)" stroke-width="0" id="svg_9" d="m1,14.76817c0,-0.97689 0.79128,-1.76817 1.76817,-1.76817c0.97689,0 1.76817,0.79128 1.76817,1.76817l-3.53633,0z" opacity="undefined" stroke="#000" fill="#000000"/>
  <path transform="rotate(180, 23.2921, 13.8841)" stroke-width="0" id="svg_10" d="m21.5239,14.76817c0,-0.97689 0.79128,-1.76817 1.76817,-1.76817c0.97689,0 1.76817,0.79128 1.76817,1.76817l-3.53633,0z" opacity="undefined" stroke="#000" fill="#000000"/>
</svg>